<?xml version="1.0" encoding="utf-8" standalone="no"?>
<!DOCTYPE svg PUBLIC "-//W3C//DTD SVG 1.1//EN"
  "http://www.w3.org/Graphics/SVG/1.1/DTD/svg11.dtd">
<!-- Created with matplotlib (https://matplotlib.org/) -->
<svg height="504.72pt" version="1.1" viewBox="0 0 983.52 504.72" width="983.52pt" xmlns="http://www.w3.org/2000/svg" xmlns:xlink="http://www.w3.org/1999/xlink">
 <metadata>
  <rdf:RDF xmlns:cc="http://creativecommons.org/ns#" xmlns:dc="http://purl.org/dc/elements/1.1/" xmlns:rdf="http://www.w3.org/1999/02/22-rdf-syntax-ns#">
   <cc:Work>
    <dc:type rdf:resource="http://purl.org/dc/dcmitype/StillImage"/>
    <dc:date>2020-10-01T18:46:10.444991</dc:date>
    <dc:format>image/svg+xml</dc:format>
    <dc:creator>
     <cc:Agent>
      <dc:title>Matplotlib v3.3.1, https://matplotlib.org/</dc:title>
     </cc:Agent>
    </dc:creator>
   </cc:Work>
  </rdf:RDF>
 </metadata>
 <defs>
  <style type="text/css">*{stroke-linecap:butt;stroke-linejoin:round;}</style>
 </defs>
 <g id="figure_1">
  <g id="patch_1">
   <path d="M 0 504.72 
L 983.52 504.72 
L 983.52 0 
L 0 0 
z
" style="fill:#ffffff;"/>
  </g>
  <g id="axes_1">
   <g id="patch_2">
    <path d="M 76.439991 452.539933 
L 977.066457 452.539933 
L 977.066457 34.409717 
L 76.439991 34.409717 
z
" style="fill:#ffffff;"/>
   </g>
   <g id="matplotlib.axis_1">
    <g id="xtick_1">
     <g id="line2d_1">
      <path clip-path="url(#pe5949c6f55)" d="M 76.439991 452.539933 
L 76.439991 34.409717 
" style="fill:none;stroke:#000000;stroke-linecap:square;stroke-opacity:0.1;stroke-width:0.5;"/>
     </g>
     <g id="line2d_2">
      <defs>
       <path d="M 0 0 
L 0 -3.5 
" id="ma912ecd0a5" style="stroke:#000000;stroke-width:0.5;"/>
      </defs>
      <g>
       <use style="stroke:#000000;stroke-width:0.5;" x="76.439991" xlink:href="#ma912ecd0a5" y="452.539933"/>
      </g>
     </g>
     <g id="text_1">
      <!-- $0.00$ -->
      <g transform="translate(67.519991 462.118683)scale(0.08 -0.08)">
       <defs>
        <path d="M 31.78125 66.40625 
Q 24.171875 66.40625 20.328125 58.90625 
Q 16.5 51.421875 16.5 36.375 
Q 16.5 21.390625 20.328125 13.890625 
Q 24.171875 6.390625 31.78125 6.390625 
Q 39.453125 6.390625 43.28125 13.890625 
Q 47.125 21.390625 47.125 36.375 
Q 47.125 51.421875 43.28125 58.90625 
Q 39.453125 66.40625 31.78125 66.40625 
z
M 31.78125 74.21875 
Q 44.046875 74.21875 50.515625 64.515625 
Q 56.984375 54.828125 56.984375 36.375 
Q 56.984375 17.96875 50.515625 8.265625 
Q 44.046875 -1.421875 31.78125 -1.421875 
Q 19.53125 -1.421875 13.0625 8.265625 
Q 6.59375 17.96875 6.59375 36.375 
Q 6.59375 54.828125 13.0625 64.515625 
Q 19.53125 74.21875 31.78125 74.21875 
z
" id="DejaVuSans-48"/>
        <path d="M 10.6875 12.40625 
L 21 12.40625 
L 21 0 
L 10.6875 0 
z
" id="DejaVuSans-46"/>
       </defs>
       <use transform="translate(0 0.78125)" xlink:href="#DejaVuSans-48"/>
       <use transform="translate(63.623047 0.78125)" xlink:href="#DejaVuSans-46"/>
       <use transform="translate(95.410156 0.78125)" xlink:href="#DejaVuSans-48"/>
       <use transform="translate(159.033203 0.78125)" xlink:href="#DejaVuSans-48"/>
      </g>
     </g>
    </g>
    <g id="xtick_2">
     <g id="line2d_3">
      <path clip-path="url(#pe5949c6f55)" d="M 290.874864 452.539933 
L 290.874864 34.409717 
" style="fill:none;stroke:#000000;stroke-linecap:square;stroke-opacity:0.1;stroke-width:0.5;"/>
     </g>
     <g id="line2d_4">
      <g>
       <use style="stroke:#000000;stroke-width:0.5;" x="290.874864" xlink:href="#ma912ecd0a5" y="452.539933"/>
      </g>
     </g>
     <g id="text_2">
      <!-- $0.25$ -->
      <g transform="translate(282.154864 462.118683)scale(0.08 -0.08)">
       <defs>
        <path d="M 19.1875 8.296875 
L 53.609375 8.296875 
L 53.609375 0 
L 7.328125 0 
L 7.328125 8.296875 
Q 12.9375 14.109375 22.625 23.890625 
Q 32.328125 33.6875 34.8125 36.53125 
Q 39.546875 41.84375 41.421875 45.53125 
Q 43.3125 49.21875 43.3125 52.78125 
Q 43.3125 58.59375 39.234375 62.25 
Q 35.15625 65.921875 28.609375 65.921875 
Q 23.96875 65.921875 18.8125 64.3125 
Q 13.671875 62.703125 7.8125 59.421875 
L 7.8125 69.390625 
Q 13.765625 71.78125 18.9375 73 
Q 24.125 74.21875 28.421875 74.21875 
Q 39.75 74.21875 46.484375 68.546875 
Q 53.21875 62.890625 53.21875 53.421875 
Q 53.21875 48.921875 51.53125 44.890625 
Q 49.859375 40.875 45.40625 35.40625 
Q 44.1875 33.984375 37.640625 27.21875 
Q 31.109375 20.453125 19.1875 8.296875 
z
" id="DejaVuSans-50"/>
        <path d="M 10.796875 72.90625 
L 49.515625 72.90625 
L 49.515625 64.59375 
L 19.828125 64.59375 
L 19.828125 46.734375 
Q 21.96875 47.46875 24.109375 47.828125 
Q 26.265625 48.1875 28.421875 48.1875 
Q 40.625 48.1875 47.75 41.5 
Q 54.890625 34.8125 54.890625 23.390625 
Q 54.890625 11.625 47.5625 5.09375 
Q 40.234375 -1.421875 26.90625 -1.421875 
Q 22.3125 -1.421875 17.546875 -0.640625 
Q 12.796875 0.140625 7.71875 1.703125 
L 7.71875 11.625 
Q 12.109375 9.234375 16.796875 8.0625 
Q 21.484375 6.890625 26.703125 6.890625 
Q 35.15625 6.890625 40.078125 11.328125 
Q 45.015625 15.765625 45.015625 23.390625 
Q 45.015625 31 40.078125 35.4375 
Q 35.15625 39.890625 26.703125 39.890625 
Q 22.75 39.890625 18.8125 39.015625 
Q 14.890625 38.140625 10.796875 36.28125 
z
" id="DejaVuSans-53"/>
       </defs>
       <use transform="translate(0 0.78125)" xlink:href="#DejaVuSans-48"/>
       <use transform="translate(63.623047 0.78125)" xlink:href="#DejaVuSans-46"/>
       <use transform="translate(89.910156 0.78125)" xlink:href="#DejaVuSans-50"/>
       <use transform="translate(153.533203 0.78125)" xlink:href="#DejaVuSans-53"/>
      </g>
     </g>
    </g>
    <g id="xtick_3">
     <g id="line2d_5">
      <path clip-path="url(#pe5949c6f55)" d="M 505.309737 452.539933 
L 505.309737 34.409717 
" style="fill:none;stroke:#000000;stroke-linecap:square;stroke-opacity:0.1;stroke-width:0.5;"/>
     </g>
     <g id="line2d_6">
      <g>
       <use style="stroke:#000000;stroke-width:0.5;" x="505.309737" xlink:href="#ma912ecd0a5" y="452.539933"/>
      </g>
     </g>
     <g id="text_3">
      <!-- $0.50$ -->
      <g transform="translate(496.389737 462.118683)scale(0.08 -0.08)">
       <use transform="translate(0 0.78125)" xlink:href="#DejaVuSans-48"/>
       <use transform="translate(63.623047 0.78125)" xlink:href="#DejaVuSans-46"/>
       <use transform="translate(95.410156 0.78125)" xlink:href="#DejaVuSans-53"/>
       <use transform="translate(159.033203 0.78125)" xlink:href="#DejaVuSans-48"/>
      </g>
     </g>
    </g>
    <g id="xtick_4">
     <g id="line2d_7">
      <path clip-path="url(#pe5949c6f55)" d="M 719.744609 452.539933 
L 719.744609 34.409717 
" style="fill:none;stroke:#000000;stroke-linecap:square;stroke-opacity:0.1;stroke-width:0.5;"/>
     </g>
     <g id="line2d_8">
      <g>
       <use style="stroke:#000000;stroke-width:0.5;" x="719.744609" xlink:href="#ma912ecd0a5" y="452.539933"/>
      </g>
     </g>
     <g id="text_4">
      <!-- $0.75$ -->
      <g transform="translate(711.144609 462.118683)scale(0.08 -0.08)">
       <defs>
        <path d="M 8.203125 72.90625 
L 55.078125 72.90625 
L 55.078125 68.703125 
L 28.609375 0 
L 18.3125 0 
L 43.21875 64.59375 
L 8.203125 64.59375 
z
" id="DejaVuSans-55"/>
       </defs>
       <use transform="translate(0 0.78125)" xlink:href="#DejaVuSans-48"/>
       <use transform="translate(63.623047 0.78125)" xlink:href="#DejaVuSans-46"/>
       <use transform="translate(87.660156 0.78125)" xlink:href="#DejaVuSans-55"/>
       <use transform="translate(151.283203 0.78125)" xlink:href="#DejaVuSans-53"/>
      </g>
     </g>
    </g>
    <g id="xtick_5">
     <g id="line2d_9">
      <path clip-path="url(#pe5949c6f55)" d="M 934.179482 452.539933 
L 934.179482 34.409717 
" style="fill:none;stroke:#000000;stroke-linecap:square;stroke-opacity:0.1;stroke-width:0.5;"/>
     </g>
     <g id="line2d_10">
      <g>
       <use style="stroke:#000000;stroke-width:0.5;" x="934.179482" xlink:href="#ma912ecd0a5" y="452.539933"/>
      </g>
     </g>
     <g id="text_5">
      <!-- $1.00$ -->
      <g transform="translate(925.259482 462.118683)scale(0.08 -0.08)">
       <defs>
        <path d="M 12.40625 8.296875 
L 28.515625 8.296875 
L 28.515625 63.921875 
L 10.984375 60.40625 
L 10.984375 69.390625 
L 28.421875 72.90625 
L 38.28125 72.90625 
L 38.28125 8.296875 
L 54.390625 8.296875 
L 54.390625 0 
L 12.40625 0 
z
" id="DejaVuSans-49"/>
       </defs>
       <use transform="translate(0 0.78125)" xlink:href="#DejaVuSans-49"/>
       <use transform="translate(63.623047 0.78125)" xlink:href="#DejaVuSans-46"/>
       <use transform="translate(95.410156 0.78125)" xlink:href="#DejaVuSans-48"/>
       <use transform="translate(159.033203 0.78125)" xlink:href="#DejaVuSans-48"/>
      </g>
     </g>
    </g>
    <g id="text_6">
     <!-- Domain (Ω) -->
     <g transform="translate(495.168615 476.140715)scale(0.11 -0.11)">
      <defs>
       <path d="M 19.671875 64.796875 
L 19.671875 8.109375 
L 31.59375 8.109375 
Q 46.6875 8.109375 53.6875 14.9375 
Q 60.6875 21.78125 60.6875 36.53125 
Q 60.6875 51.171875 53.6875 57.984375 
Q 46.6875 64.796875 31.59375 64.796875 
z
M 9.8125 72.90625 
L 30.078125 72.90625 
Q 51.265625 72.90625 61.171875 64.09375 
Q 71.09375 55.28125 71.09375 36.53125 
Q 71.09375 17.671875 61.125 8.828125 
Q 51.171875 0 30.078125 0 
L 9.8125 0 
z
" id="DejaVuSans-68"/>
       <path d="M 30.609375 48.390625 
Q 23.390625 48.390625 19.1875 42.75 
Q 14.984375 37.109375 14.984375 27.296875 
Q 14.984375 17.484375 19.15625 11.84375 
Q 23.34375 6.203125 30.609375 6.203125 
Q 37.796875 6.203125 41.984375 11.859375 
Q 46.1875 17.53125 46.1875 27.296875 
Q 46.1875 37.015625 41.984375 42.703125 
Q 37.796875 48.390625 30.609375 48.390625 
z
M 30.609375 56 
Q 42.328125 56 49.015625 48.375 
Q 55.71875 40.765625 55.71875 27.296875 
Q 55.71875 13.875 49.015625 6.21875 
Q 42.328125 -1.421875 30.609375 -1.421875 
Q 18.84375 -1.421875 12.171875 6.21875 
Q 5.515625 13.875 5.515625 27.296875 
Q 5.515625 40.765625 12.171875 48.375 
Q 18.84375 56 30.609375 56 
z
" id="DejaVuSans-111"/>
       <path d="M 52 44.1875 
Q 55.375 50.25 60.0625 53.125 
Q 64.75 56 71.09375 56 
Q 79.640625 56 84.28125 50.015625 
Q 88.921875 44.046875 88.921875 33.015625 
L 88.921875 0 
L 79.890625 0 
L 79.890625 32.71875 
Q 79.890625 40.578125 77.09375 44.375 
Q 74.3125 48.1875 68.609375 48.1875 
Q 61.625 48.1875 57.5625 43.546875 
Q 53.515625 38.921875 53.515625 30.90625 
L 53.515625 0 
L 44.484375 0 
L 44.484375 32.71875 
Q 44.484375 40.625 41.703125 44.40625 
Q 38.921875 48.1875 33.109375 48.1875 
Q 26.21875 48.1875 22.15625 43.53125 
Q 18.109375 38.875 18.109375 30.90625 
L 18.109375 0 
L 9.078125 0 
L 9.078125 54.6875 
L 18.109375 54.6875 
L 18.109375 46.1875 
Q 21.1875 51.21875 25.484375 53.609375 
Q 29.78125 56 35.6875 56 
Q 41.65625 56 45.828125 52.96875 
Q 50 49.953125 52 44.1875 
z
" id="DejaVuSans-109"/>
       <path d="M 34.28125 27.484375 
Q 23.390625 27.484375 19.1875 25 
Q 14.984375 22.515625 14.984375 16.5 
Q 14.984375 11.71875 18.140625 8.90625 
Q 21.296875 6.109375 26.703125 6.109375 
Q 34.1875 6.109375 38.703125 11.40625 
Q 43.21875 16.703125 43.21875 25.484375 
L 43.21875 27.484375 
z
M 52.203125 31.203125 
L 52.203125 0 
L 43.21875 0 
L 43.21875 8.296875 
Q 40.140625 3.328125 35.546875 0.953125 
Q 30.953125 -1.421875 24.3125 -1.421875 
Q 15.921875 -1.421875 10.953125 3.296875 
Q 6 8.015625 6 15.921875 
Q 6 25.140625 12.171875 29.828125 
Q 18.359375 34.515625 30.609375 34.515625 
L 43.21875 34.515625 
L 43.21875 35.40625 
Q 43.21875 41.609375 39.140625 45 
Q 35.0625 48.390625 27.6875 48.390625 
Q 23 48.390625 18.546875 47.265625 
Q 14.109375 46.140625 10.015625 43.890625 
L 10.015625 52.203125 
Q 14.9375 54.109375 19.578125 55.046875 
Q 24.21875 56 28.609375 56 
Q 40.484375 56 46.34375 49.84375 
Q 52.203125 43.703125 52.203125 31.203125 
z
" id="DejaVuSans-97"/>
       <path d="M 9.421875 54.6875 
L 18.40625 54.6875 
L 18.40625 0 
L 9.421875 0 
z
M 9.421875 75.984375 
L 18.40625 75.984375 
L 18.40625 64.59375 
L 9.421875 64.59375 
z
" id="DejaVuSans-105"/>
       <path d="M 54.890625 33.015625 
L 54.890625 0 
L 45.90625 0 
L 45.90625 32.71875 
Q 45.90625 40.484375 42.875 44.328125 
Q 39.84375 48.1875 33.796875 48.1875 
Q 26.515625 48.1875 22.3125 43.546875 
Q 18.109375 38.921875 18.109375 30.90625 
L 18.109375 0 
L 9.078125 0 
L 9.078125 54.6875 
L 18.109375 54.6875 
L 18.109375 46.1875 
Q 21.34375 51.125 25.703125 53.5625 
Q 30.078125 56 35.796875 56 
Q 45.21875 56 50.046875 50.171875 
Q 54.890625 44.34375 54.890625 33.015625 
z
" id="DejaVuSans-110"/>
       <path id="DejaVuSans-32"/>
       <path d="M 31 75.875 
Q 24.46875 64.65625 21.28125 53.65625 
Q 18.109375 42.671875 18.109375 31.390625 
Q 18.109375 20.125 21.3125 9.0625 
Q 24.515625 -2 31 -13.1875 
L 23.1875 -13.1875 
Q 15.875 -1.703125 12.234375 9.375 
Q 8.59375 20.453125 8.59375 31.390625 
Q 8.59375 42.28125 12.203125 53.3125 
Q 15.828125 64.359375 23.1875 75.875 
z
" id="DejaVuSans-40"/>
       <path d="M 72.609375 8.6875 
L 72.609375 0 
L 43.3125 0 
L 43.3125 8.6875 
Q 51.953125 13.421875 56.78125 21.53125 
Q 61.625 29.640625 61.625 39.5 
Q 61.625 51.21875 55.171875 58.296875 
Q 48.734375 65.375 38.1875 65.375 
Q 27.640625 65.375 21.171875 58.265625 
Q 14.703125 51.171875 14.703125 39.5 
Q 14.703125 29.640625 19.53125 21.53125 
Q 24.421875 13.421875 33.109375 8.6875 
L 33.109375 0 
L 3.8125 0 
L 3.8125 8.6875 
L 19.390625 8.6875 
Q 11.671875 15.484375 8.109375 22.75 
Q 4.59375 30.03125 4.59375 39.015625 
Q 4.59375 54.546875 13.96875 64.15625 
Q 23.296875 73.78125 38.1875 73.78125 
Q 52.984375 73.78125 62.40625 64.15625 
Q 71.78125 54.59375 71.78125 39.5 
Q 71.78125 30.03125 68.3125 22.796875 
Q 64.84375 15.578125 56.984375 8.6875 
z
" id="DejaVuSans-937"/>
       <path d="M 8.015625 75.875 
L 15.828125 75.875 
Q 23.140625 64.359375 26.78125 53.3125 
Q 30.421875 42.28125 30.421875 31.390625 
Q 30.421875 20.453125 26.78125 9.375 
Q 23.140625 -1.703125 15.828125 -13.1875 
L 8.015625 -13.1875 
Q 14.5 -2 17.703125 9.0625 
Q 20.90625 20.125 20.90625 31.390625 
Q 20.90625 42.671875 17.703125 53.65625 
Q 14.5 64.65625 8.015625 75.875 
z
" id="DejaVuSans-41"/>
      </defs>
      <use xlink:href="#DejaVuSans-68"/>
      <use x="77.001953" xlink:href="#DejaVuSans-111"/>
      <use x="138.183594" xlink:href="#DejaVuSans-109"/>
      <use x="235.595703" xlink:href="#DejaVuSans-97"/>
      <use x="296.875" xlink:href="#DejaVuSans-105"/>
      <use x="324.658203" xlink:href="#DejaVuSans-110"/>
      <use x="388.037109" xlink:href="#DejaVuSans-32"/>
      <use x="419.824219" xlink:href="#DejaVuSans-40"/>
      <use x="458.837891" xlink:href="#DejaVuSans-937"/>
      <use x="535.253906" xlink:href="#DejaVuSans-41"/>
     </g>
    </g>
   </g>
   <g id="matplotlib.axis_2">
    <g id="ytick_1">
     <g id="line2d_11">
      <path clip-path="url(#pe5949c6f55)" d="M 76.439991 417.695749 
L 977.066457 417.695749 
" style="fill:none;stroke:#000000;stroke-linecap:square;stroke-opacity:0.1;stroke-width:0.5;"/>
     </g>
     <g id="line2d_12">
      <defs>
       <path d="M 0 0 
L 3.5 0 
" id="mfaf9548008" style="stroke:#000000;stroke-width:0.5;"/>
      </defs>
      <g>
       <use style="stroke:#000000;stroke-width:0.5;" x="76.439991" xlink:href="#mfaf9548008" y="417.695749"/>
      </g>
     </g>
     <g id="text_7">
      <!-- $-2$ -->
      <g transform="translate(61.099991 420.735124)scale(0.08 -0.08)">
       <defs>
        <path d="M 10.59375 35.5 
L 73.1875 35.5 
L 73.1875 27.203125 
L 10.59375 27.203125 
z
" id="DejaVuSans-8722"/>
       </defs>
       <use transform="translate(0 0.78125)" xlink:href="#DejaVuSans-8722"/>
       <use transform="translate(83.789062 0.78125)" xlink:href="#DejaVuSans-50"/>
      </g>
     </g>
    </g>
    <g id="ytick_2">
     <g id="line2d_13">
      <path clip-path="url(#pe5949c6f55)" d="M 76.439991 348.007379 
L 977.066457 348.007379 
" style="fill:none;stroke:#000000;stroke-linecap:square;stroke-opacity:0.1;stroke-width:0.5;"/>
     </g>
     <g id="line2d_14">
      <g>
       <use style="stroke:#000000;stroke-width:0.5;" x="76.439991" xlink:href="#mfaf9548008" y="348.007379"/>
      </g>
     </g>
     <g id="text_8">
      <!-- $-1$ -->
      <g transform="translate(61.099991 351.046754)scale(0.08 -0.08)">
       <use transform="translate(0 0.09375)" xlink:href="#DejaVuSans-8722"/>
       <use transform="translate(83.789062 0.09375)" xlink:href="#DejaVuSans-49"/>
      </g>
     </g>
    </g>
    <g id="ytick_3">
     <g id="line2d_15">
      <path clip-path="url(#pe5949c6f55)" d="M 76.439991 278.31901 
L 977.066457 278.31901 
" style="fill:none;stroke:#000000;stroke-linecap:square;stroke-opacity:0.1;stroke-width:0.5;"/>
     </g>
     <g id="line2d_16">
      <g>
       <use style="stroke:#000000;stroke-width:0.5;" x="76.439991" xlink:href="#mfaf9548008" y="278.31901"/>
      </g>
     </g>
     <g id="text_9">
      <!-- $0$ -->
      <g transform="translate(67.819991 281.358385)scale(0.08 -0.08)">
       <use transform="translate(0 0.78125)" xlink:href="#DejaVuSans-48"/>
      </g>
     </g>
    </g>
    <g id="ytick_4">
     <g id="line2d_17">
      <path clip-path="url(#pe5949c6f55)" d="M 76.439991 208.63064 
L 977.066457 208.63064 
" style="fill:none;stroke:#000000;stroke-linecap:square;stroke-opacity:0.1;stroke-width:0.5;"/>
     </g>
     <g id="line2d_18">
      <g>
       <use style="stroke:#000000;stroke-width:0.5;" x="76.439991" xlink:href="#mfaf9548008" y="208.63064"/>
      </g>
     </g>
     <g id="text_10">
      <!-- $1$ -->
      <g transform="translate(67.819991 211.670015)scale(0.08 -0.08)">
       <use transform="translate(0 0.09375)" xlink:href="#DejaVuSans-49"/>
      </g>
     </g>
    </g>
    <g id="ytick_5">
     <g id="line2d_19">
      <path clip-path="url(#pe5949c6f55)" d="M 76.439991 138.942271 
L 977.066457 138.942271 
" style="fill:none;stroke:#000000;stroke-linecap:square;stroke-opacity:0.1;stroke-width:0.5;"/>
     </g>
     <g id="line2d_20">
      <g>
       <use style="stroke:#000000;stroke-width:0.5;" x="76.439991" xlink:href="#mfaf9548008" y="138.942271"/>
      </g>
     </g>
     <g id="text_11">
      <!-- $2$ -->
      <g transform="translate(67.819991 141.981646)scale(0.08 -0.08)">
       <use transform="translate(0 0.78125)" xlink:href="#DejaVuSans-50"/>
      </g>
     </g>
    </g>
    <g id="ytick_6">
     <g id="line2d_21">
      <path clip-path="url(#pe5949c6f55)" d="M 76.439991 69.253901 
L 977.066457 69.253901 
" style="fill:none;stroke:#000000;stroke-linecap:square;stroke-opacity:0.1;stroke-width:0.5;"/>
     </g>
     <g id="line2d_22">
      <g>
       <use style="stroke:#000000;stroke-width:0.5;" x="76.439991" xlink:href="#mfaf9548008" y="69.253901"/>
      </g>
     </g>
     <g id="text_12">
      <!-- $3$ -->
      <g transform="translate(67.819991 72.293276)scale(0.08 -0.08)">
       <defs>
        <path d="M 40.578125 39.3125 
Q 47.65625 37.796875 51.625 33 
Q 55.609375 28.21875 55.609375 21.1875 
Q 55.609375 10.40625 48.1875 4.484375 
Q 40.765625 -1.421875 27.09375 -1.421875 
Q 22.515625 -1.421875 17.65625 -0.515625 
Q 12.796875 0.390625 7.625 2.203125 
L 7.625 11.71875 
Q 11.71875 9.328125 16.59375 8.109375 
Q 21.484375 6.890625 26.8125 6.890625 
Q 36.078125 6.890625 40.9375 10.546875 
Q 45.796875 14.203125 45.796875 21.1875 
Q 45.796875 27.640625 41.28125 31.265625 
Q 36.765625 34.90625 28.71875 34.90625 
L 20.21875 34.90625 
L 20.21875 43.015625 
L 29.109375 43.015625 
Q 36.375 43.015625 40.234375 45.921875 
Q 44.09375 48.828125 44.09375 54.296875 
Q 44.09375 59.90625 40.109375 62.90625 
Q 36.140625 65.921875 28.71875 65.921875 
Q 24.65625 65.921875 20.015625 65.03125 
Q 15.375 64.15625 9.8125 62.3125 
L 9.8125 71.09375 
Q 15.4375 72.65625 20.34375 73.4375 
Q 25.25 74.21875 29.59375 74.21875 
Q 40.828125 74.21875 47.359375 69.109375 
Q 53.90625 64.015625 53.90625 55.328125 
Q 53.90625 49.265625 50.4375 45.09375 
Q 46.96875 40.921875 40.578125 39.3125 
z
" id="DejaVuSans-51"/>
       </defs>
       <use transform="translate(0 0.78125)" xlink:href="#DejaVuSans-51"/>
      </g>
     </g>
    </g>
    <g id="text_13">
     <!-- Deflection (w) -->
     <g transform="translate(54.812335 282.039278)rotate(-90)scale(0.11 -0.11)">
      <defs>
       <path d="M 56.203125 29.59375 
L 56.203125 25.203125 
L 14.890625 25.203125 
Q 15.484375 15.921875 20.484375 11.0625 
Q 25.484375 6.203125 34.421875 6.203125 
Q 39.59375 6.203125 44.453125 7.46875 
Q 49.3125 8.734375 54.109375 11.28125 
L 54.109375 2.78125 
Q 49.265625 0.734375 44.1875 -0.34375 
Q 39.109375 -1.421875 33.890625 -1.421875 
Q 20.796875 -1.421875 13.15625 6.1875 
Q 5.515625 13.8125 5.515625 26.8125 
Q 5.515625 40.234375 12.765625 48.109375 
Q 20.015625 56 32.328125 56 
Q 43.359375 56 49.78125 48.890625 
Q 56.203125 41.796875 56.203125 29.59375 
z
M 47.21875 32.234375 
Q 47.125 39.59375 43.09375 43.984375 
Q 39.0625 48.390625 32.421875 48.390625 
Q 24.90625 48.390625 20.390625 44.140625 
Q 15.875 39.890625 15.1875 32.171875 
z
" id="DejaVuSans-101"/>
       <path d="M 37.109375 75.984375 
L 37.109375 68.5 
L 28.515625 68.5 
Q 23.6875 68.5 21.796875 66.546875 
Q 19.921875 64.59375 19.921875 59.515625 
L 19.921875 54.6875 
L 34.71875 54.6875 
L 34.71875 47.703125 
L 19.921875 47.703125 
L 19.921875 0 
L 10.890625 0 
L 10.890625 47.703125 
L 2.296875 47.703125 
L 2.296875 54.6875 
L 10.890625 54.6875 
L 10.890625 58.5 
Q 10.890625 67.625 15.140625 71.796875 
Q 19.390625 75.984375 28.609375 75.984375 
z
" id="DejaVuSans-102"/>
       <path d="M 9.421875 75.984375 
L 18.40625 75.984375 
L 18.40625 0 
L 9.421875 0 
z
" id="DejaVuSans-108"/>
       <path d="M 48.78125 52.59375 
L 48.78125 44.1875 
Q 44.96875 46.296875 41.140625 47.34375 
Q 37.3125 48.390625 33.40625 48.390625 
Q 24.65625 48.390625 19.8125 42.84375 
Q 14.984375 37.3125 14.984375 27.296875 
Q 14.984375 17.28125 19.8125 11.734375 
Q 24.65625 6.203125 33.40625 6.203125 
Q 37.3125 6.203125 41.140625 7.25 
Q 44.96875 8.296875 48.78125 10.40625 
L 48.78125 2.09375 
Q 45.015625 0.34375 40.984375 -0.53125 
Q 36.96875 -1.421875 32.421875 -1.421875 
Q 20.0625 -1.421875 12.78125 6.34375 
Q 5.515625 14.109375 5.515625 27.296875 
Q 5.515625 40.671875 12.859375 48.328125 
Q 20.21875 56 33.015625 56 
Q 37.15625 56 41.109375 55.140625 
Q 45.0625 54.296875 48.78125 52.59375 
z
" id="DejaVuSans-99"/>
       <path d="M 18.3125 70.21875 
L 18.3125 54.6875 
L 36.8125 54.6875 
L 36.8125 47.703125 
L 18.3125 47.703125 
L 18.3125 18.015625 
Q 18.3125 11.328125 20.140625 9.421875 
Q 21.96875 7.515625 27.59375 7.515625 
L 36.8125 7.515625 
L 36.8125 0 
L 27.59375 0 
Q 17.1875 0 13.234375 3.875 
Q 9.28125 7.765625 9.28125 18.015625 
L 9.28125 47.703125 
L 2.6875 47.703125 
L 2.6875 54.6875 
L 9.28125 54.6875 
L 9.28125 70.21875 
z
" id="DejaVuSans-116"/>
       <path d="M 4.203125 54.6875 
L 13.1875 54.6875 
L 24.421875 12.015625 
L 35.59375 54.6875 
L 46.1875 54.6875 
L 57.421875 12.015625 
L 68.609375 54.6875 
L 77.59375 54.6875 
L 63.28125 0 
L 52.6875 0 
L 40.921875 44.828125 
L 29.109375 0 
L 18.5 0 
z
" id="DejaVuSans-119"/>
      </defs>
      <use xlink:href="#DejaVuSans-68"/>
      <use x="77.001953" xlink:href="#DejaVuSans-101"/>
      <use x="138.525391" xlink:href="#DejaVuSans-102"/>
      <use x="173.730469" xlink:href="#DejaVuSans-108"/>
      <use x="201.513672" xlink:href="#DejaVuSans-101"/>
      <use x="263.037109" xlink:href="#DejaVuSans-99"/>
      <use x="318.017578" xlink:href="#DejaVuSans-116"/>
      <use x="357.226562" xlink:href="#DejaVuSans-105"/>
      <use x="385.009766" xlink:href="#DejaVuSans-111"/>
      <use x="446.191406" xlink:href="#DejaVuSans-110"/>
      <use x="509.570312" xlink:href="#DejaVuSans-32"/>
      <use x="541.357422" xlink:href="#DejaVuSans-40"/>
      <use x="580.371094" xlink:href="#DejaVuSans-119"/>
      <use x="662.158203" xlink:href="#DejaVuSans-41"/>
     </g>
    </g>
   </g>
   <g id="line2d_23">
    <path clip-path="url(#pe5949c6f55)" d="M 76.439991 278.31901 
L 171.744379 279.609535 
L 267.048767 283.481111 
L 362.353155 289.933738 
L 457.657543 298.967416 
L 552.961931 310.582144 
L 648.266319 324.777923 
L 743.570706 341.554752 
L 838.875094 360.912633 
L 934.179482 382.851564 
" style="fill:none;stroke:#009afa;stroke-linecap:round;"/>
   </g>
   <g id="PathCollection_1">
    <defs>
     <path d="M 0 2 
C 0.530406 2 1.03916 1.789267 1.414214 1.414214 
C 1.789267 1.03916 2 0.530406 2 0 
C 2 -0.530406 1.789267 -1.03916 1.414214 -1.414214 
C 1.03916 -1.789267 0.530406 -2 0 -2 
C -0.530406 -2 -1.03916 -1.789267 -1.414214 -1.414214 
C -1.789267 -1.03916 -2 -0.530406 -2 0 
C -2 0.530406 -1.789267 1.03916 -1.414214 1.414214 
C -1.03916 1.789267 -0.530406 2 0 2 
z
" id="md8b21114da" style="stroke:#000000;"/>
    </defs>
    <g clip-path="url(#pe5949c6f55)">
     <use style="fill:#009afa;stroke:#000000;" x="76.439991" xlink:href="#md8b21114da" y="278.31901"/>
     <use style="fill:#009afa;stroke:#000000;" x="171.744379" xlink:href="#md8b21114da" y="279.609535"/>
     <use style="fill:#009afa;stroke:#000000;" x="267.048767" xlink:href="#md8b21114da" y="283.481111"/>
     <use style="fill:#009afa;stroke:#000000;" x="362.353155" xlink:href="#md8b21114da" y="289.933738"/>
     <use style="fill:#009afa;stroke:#000000;" x="457.657543" xlink:href="#md8b21114da" y="298.967416"/>
     <use style="fill:#009afa;stroke:#000000;" x="552.961931" xlink:href="#md8b21114da" y="310.582144"/>
     <use style="fill:#009afa;stroke:#000000;" x="648.266319" xlink:href="#md8b21114da" y="324.777923"/>
     <use style="fill:#009afa;stroke:#000000;" x="743.570706" xlink:href="#md8b21114da" y="341.554752"/>
     <use style="fill:#009afa;stroke:#000000;" x="838.875094" xlink:href="#md8b21114da" y="360.912633"/>
     <use style="fill:#009afa;stroke:#000000;" x="934.179482" xlink:href="#md8b21114da" y="382.851564"/>
    </g>
   </g>
   <g id="line2d_24">
    <path clip-path="url(#pe5949c6f55)" d="M 76.439991 278.31901 
L 171.744379 279.609535 
L 267.048767 283.481111 
L 362.353155 289.933738 
L 457.657543 298.967416 
L 552.961931 310.582144 
L 648.266319 324.777923 
L 743.570706 341.554752 
L 838.875094 360.912633 
L 934.179482 382.851564 
" style="fill:none;stroke:#e36f47;stroke-dasharray:3.7,1.6;stroke-dashoffset:0;"/>
   </g>
   <g id="patch_3">
    <path d="M 76.439991 452.539933 
L 76.439991 34.409717 
" style="fill:none;stroke:#000000;stroke-linecap:square;stroke-linejoin:miter;"/>
   </g>
   <g id="patch_4">
    <path d="M 76.439991 452.539933 
L 977.066457 452.539933 
" style="fill:none;stroke:#000000;stroke-linecap:square;stroke-linejoin:miter;"/>
   </g>
   <g id="line2d_25">
    <path clip-path="url(#pe5949c6f55)" d="M 76.439991 278.31901 
L 171.744379 278.749185 
L 267.048767 280.03971 
L 362.353155 282.190586 
L 457.657543 285.201812 
L 552.961931 289.073388 
L 648.266319 293.805314 
L 743.570706 299.397591 
L 838.875094 305.850217 
L 934.179482 313.163194 
" style="fill:none;stroke:#3ea44e;stroke-linecap:round;"/>
   </g>
   <g id="text_14">
    <!-- with end moment -->
    <g transform="translate(464.859005 28.409717)scale(0.14 -0.14)">
     <defs>
      <path d="M 54.890625 33.015625 
L 54.890625 0 
L 45.90625 0 
L 45.90625 32.71875 
Q 45.90625 40.484375 42.875 44.328125 
Q 39.84375 48.1875 33.796875 48.1875 
Q 26.515625 48.1875 22.3125 43.546875 
Q 18.109375 38.921875 18.109375 30.90625 
L 18.109375 0 
L 9.078125 0 
L 9.078125 75.984375 
L 18.109375 75.984375 
L 18.109375 46.1875 
Q 21.34375 51.125 25.703125 53.5625 
Q 30.078125 56 35.796875 56 
Q 45.21875 56 50.046875 50.171875 
Q 54.890625 44.34375 54.890625 33.015625 
z
" id="DejaVuSans-104"/>
      <path d="M 45.40625 46.390625 
L 45.40625 75.984375 
L 54.390625 75.984375 
L 54.390625 0 
L 45.40625 0 
L 45.40625 8.203125 
Q 42.578125 3.328125 38.25 0.953125 
Q 33.9375 -1.421875 27.875 -1.421875 
Q 17.96875 -1.421875 11.734375 6.484375 
Q 5.515625 14.40625 5.515625 27.296875 
Q 5.515625 40.1875 11.734375 48.09375 
Q 17.96875 56 27.875 56 
Q 33.9375 56 38.25 53.625 
Q 42.578125 51.265625 45.40625 46.390625 
z
M 14.796875 27.296875 
Q 14.796875 17.390625 18.875 11.75 
Q 22.953125 6.109375 30.078125 6.109375 
Q 37.203125 6.109375 41.296875 11.75 
Q 45.40625 17.390625 45.40625 27.296875 
Q 45.40625 37.203125 41.296875 42.84375 
Q 37.203125 48.484375 30.078125 48.484375 
Q 22.953125 48.484375 18.875 42.84375 
Q 14.796875 37.203125 14.796875 27.296875 
z
" id="DejaVuSans-100"/>
     </defs>
     <use xlink:href="#DejaVuSans-119"/>
     <use x="81.787109" xlink:href="#DejaVuSans-105"/>
     <use x="109.570312" xlink:href="#DejaVuSans-116"/>
     <use x="148.779297" xlink:href="#DejaVuSans-104"/>
     <use x="212.158203" xlink:href="#DejaVuSans-32"/>
     <use x="243.945312" xlink:href="#DejaVuSans-101"/>
     <use x="305.46875" xlink:href="#DejaVuSans-110"/>
     <use x="368.847656" xlink:href="#DejaVuSans-100"/>
     <use x="432.324219" xlink:href="#DejaVuSans-32"/>
     <use x="464.111328" xlink:href="#DejaVuSans-109"/>
     <use x="561.523438" xlink:href="#DejaVuSans-111"/>
     <use x="622.705078" xlink:href="#DejaVuSans-109"/>
     <use x="720.117188" xlink:href="#DejaVuSans-101"/>
     <use x="781.640625" xlink:href="#DejaVuSans-110"/>
     <use x="845.019531" xlink:href="#DejaVuSans-116"/>
    </g>
   </g>
   <g id="PathCollection_2">
    <defs>
     <path d="M 0 2 
C 0.530406 2 1.03916 1.789267 1.414214 1.414214 
C 1.789267 1.03916 2 0.530406 2 0 
C 2 -0.530406 1.789267 -1.03916 1.414214 -1.414214 
C 1.03916 -1.789267 0.530406 -2 0 -2 
C -0.530406 -2 -1.03916 -1.789267 -1.414214 -1.414214 
C -1.789267 -1.03916 -2 -0.530406 -2 0 
C -2 0.530406 -1.789267 1.03916 -1.414214 1.414214 
C -1.03916 1.789267 -0.530406 2 0 2 
z
" id="m447ef7f740" style="stroke:#000000;"/>
    </defs>
    <g clip-path="url(#pe5949c6f55)">
     <use style="fill:#3ea44e;stroke:#000000;" x="76.439991" xlink:href="#m447ef7f740" y="278.31901"/>
     <use style="fill:#3ea44e;stroke:#000000;" x="171.744379" xlink:href="#m447ef7f740" y="278.749185"/>
     <use style="fill:#3ea44e;stroke:#000000;" x="267.048767" xlink:href="#m447ef7f740" y="280.03971"/>
     <use style="fill:#3ea44e;stroke:#000000;" x="362.353155" xlink:href="#m447ef7f740" y="282.190586"/>
     <use style="fill:#3ea44e;stroke:#000000;" x="457.657543" xlink:href="#m447ef7f740" y="285.201812"/>
     <use style="fill:#3ea44e;stroke:#000000;" x="552.961931" xlink:href="#m447ef7f740" y="289.073388"/>
     <use style="fill:#3ea44e;stroke:#000000;" x="648.266319" xlink:href="#m447ef7f740" y="293.805314"/>
     <use style="fill:#3ea44e;stroke:#000000;" x="743.570706" xlink:href="#m447ef7f740" y="299.397591"/>
     <use style="fill:#3ea44e;stroke:#000000;" x="838.875094" xlink:href="#m447ef7f740" y="305.850217"/>
     <use style="fill:#3ea44e;stroke:#000000;" x="934.179482" xlink:href="#m447ef7f740" y="313.163194"/>
    </g>
   </g>
   <g id="line2d_26">
    <path clip-path="url(#pe5949c6f55)" d="M 76.439991 278.31901 
L 171.744379 278.749185 
L 267.048767 280.03971 
L 362.353155 282.190586 
L 457.657543 285.201812 
L 552.961931 289.073388 
L 648.266319 293.805314 
L 743.570706 299.397591 
L 838.875094 305.850217 
L 934.179482 313.163194 
" style="fill:none;stroke:#c371d2;stroke-dasharray:3.7,1.6;stroke-dashoffset:0;"/>
   </g>
   <g id="line2d_27">
    <path clip-path="url(#pe5949c6f55)" d="M 76.439991 278.31901 
L 171.744379 277.45866 
L 267.048767 274.877609 
L 362.353155 270.575858 
L 457.657543 264.553406 
L 552.961931 256.810254 
L 648.266319 247.346401 
L 743.570706 236.161848 
L 838.875094 223.256594 
L 934.179482 208.63064 
" style="fill:none;stroke:#ac8e18;stroke-linecap:round;"/>
   </g>
   <g id="PathCollection_3">
    <defs>
     <path d="M 0 2 
C 0.530406 2 1.03916 1.789267 1.414214 1.414214 
C 1.789267 1.03916 2 0.530406 2 0 
C 2 -0.530406 1.789267 -1.03916 1.414214 -1.414214 
C 1.03916 -1.789267 0.530406 -2 0 -2 
C -0.530406 -2 -1.03916 -1.789267 -1.414214 -1.414214 
C -1.789267 -1.03916 -2 -0.530406 -2 0 
C -2 0.530406 -1.789267 1.03916 -1.414214 1.414214 
C -1.03916 1.789267 -0.530406 2 0 2 
z
" id="m951b7a951d" style="stroke:#000000;"/>
    </defs>
    <g clip-path="url(#pe5949c6f55)">
     <use style="fill:#ac8e18;stroke:#000000;" x="76.439991" xlink:href="#m951b7a951d" y="278.31901"/>
     <use style="fill:#ac8e18;stroke:#000000;" x="171.744379" xlink:href="#m951b7a951d" y="277.45866"/>
     <use style="fill:#ac8e18;stroke:#000000;" x="267.048767" xlink:href="#m951b7a951d" y="274.877609"/>
     <use style="fill:#ac8e18;stroke:#000000;" x="362.353155" xlink:href="#m951b7a951d" y="270.575858"/>
     <use style="fill:#ac8e18;stroke:#000000;" x="457.657543" xlink:href="#m951b7a951d" y="264.553406"/>
     <use style="fill:#ac8e18;stroke:#000000;" x="552.961931" xlink:href="#m951b7a951d" y="256.810254"/>
     <use style="fill:#ac8e18;stroke:#000000;" x="648.266319" xlink:href="#m951b7a951d" y="247.346401"/>
     <use style="fill:#ac8e18;stroke:#000000;" x="743.570706" xlink:href="#m951b7a951d" y="236.161848"/>
     <use style="fill:#ac8e18;stroke:#000000;" x="838.875094" xlink:href="#m951b7a951d" y="223.256594"/>
     <use style="fill:#ac8e18;stroke:#000000;" x="934.179482" xlink:href="#m951b7a951d" y="208.63064"/>
    </g>
   </g>
   <g id="line2d_28">
    <path clip-path="url(#pe5949c6f55)" d="M 76.439991 278.31901 
L 171.744379 277.45866 
L 267.048767 274.877609 
L 362.353155 270.575858 
L 457.657543 264.553406 
L 552.961931 256.810254 
L 648.266319 247.346401 
L 743.570706 236.161848 
L 838.875094 223.256594 
L 934.179482 208.63064 
" style="fill:none;stroke:#00aaae;stroke-dasharray:3.7,1.6;stroke-dashoffset:0;"/>
   </g>
   <g id="line2d_29">
    <path clip-path="url(#pe5949c6f55)" d="M 76.439991 278.31901 
L 171.744379 276.598309 
L 267.048767 271.436208 
L 362.353155 262.832705 
L 457.657543 250.787802 
L 552.961931 235.301498 
L 648.266319 216.373792 
L 743.570706 194.004686 
L 838.875094 168.194179 
L 934.179482 138.942271 
" style="fill:none;stroke:#ed5e93;stroke-linecap:round;"/>
   </g>
   <g id="PathCollection_4">
    <defs>
     <path d="M 0 2 
C 0.530406 2 1.03916 1.789267 1.414214 1.414214 
C 1.789267 1.03916 2 0.530406 2 0 
C 2 -0.530406 1.789267 -1.03916 1.414214 -1.414214 
C 1.03916 -1.789267 0.530406 -2 0 -2 
C -0.530406 -2 -1.03916 -1.789267 -1.414214 -1.414214 
C -1.789267 -1.03916 -2 -0.530406 -2 0 
C -2 0.530406 -1.789267 1.03916 -1.414214 1.414214 
C -1.03916 1.789267 -0.530406 2 0 2 
z
" id="ma2b6e19bb3" style="stroke:#000000;"/>
    </defs>
    <g clip-path="url(#pe5949c6f55)">
     <use style="fill:#ed5e93;stroke:#000000;" x="76.439991" xlink:href="#ma2b6e19bb3" y="278.31901"/>
     <use style="fill:#ed5e93;stroke:#000000;" x="171.744379" xlink:href="#ma2b6e19bb3" y="276.598309"/>
     <use style="fill:#ed5e93;stroke:#000000;" x="267.048767" xlink:href="#ma2b6e19bb3" y="271.436208"/>
     <use style="fill:#ed5e93;stroke:#000000;" x="362.353155" xlink:href="#ma2b6e19bb3" y="262.832705"/>
     <use style="fill:#ed5e93;stroke:#000000;" x="457.657543" xlink:href="#ma2b6e19bb3" y="250.787802"/>
     <use style="fill:#ed5e93;stroke:#000000;" x="552.961931" xlink:href="#ma2b6e19bb3" y="235.301498"/>
     <use style="fill:#ed5e93;stroke:#000000;" x="648.266319" xlink:href="#ma2b6e19bb3" y="216.373792"/>
     <use style="fill:#ed5e93;stroke:#000000;" x="743.570706" xlink:href="#ma2b6e19bb3" y="194.004686"/>
     <use style="fill:#ed5e93;stroke:#000000;" x="838.875094" xlink:href="#ma2b6e19bb3" y="168.194179"/>
     <use style="fill:#ed5e93;stroke:#000000;" x="934.179482" xlink:href="#ma2b6e19bb3" y="138.942271"/>
    </g>
   </g>
   <g id="line2d_30">
    <path clip-path="url(#pe5949c6f55)" d="M 76.439991 278.31901 
L 171.744379 276.598309 
L 267.048767 271.436208 
L 362.353155 262.832705 
L 457.657543 250.787802 
L 552.961931 235.301498 
L 648.266319 216.373792 
L 743.570706 194.004686 
L 838.875094 168.194179 
L 934.179482 138.942271 
" style="fill:none;stroke:#c68225;stroke-dasharray:3.7,1.6;stroke-dashoffset:0;"/>
   </g>
   <g id="line2d_31">
    <path clip-path="url(#pe5949c6f55)" d="M 76.439991 278.31901 
L 171.744379 276.168134 
L 267.048767 269.715507 
L 362.353155 258.961129 
L 457.657543 243.905 
L 552.961931 224.54712 
L 648.266319 200.887488 
L 743.570706 172.926105 
L 838.875094 140.662971 
L 934.179482 104.098086 
" style="fill:none;stroke:#00a98d;stroke-linecap:round;"/>
   </g>
   <g id="PathCollection_5">
    <defs>
     <path d="M 0 2 
C 0.530406 2 1.03916 1.789267 1.414214 1.414214 
C 1.789267 1.03916 2 0.530406 2 0 
C 2 -0.530406 1.789267 -1.03916 1.414214 -1.414214 
C 1.03916 -1.789267 0.530406 -2 0 -2 
C -0.530406 -2 -1.03916 -1.789267 -1.414214 -1.414214 
C -1.789267 -1.03916 -2 -0.530406 -2 0 
C -2 0.530406 -1.789267 1.03916 -1.414214 1.414214 
C -1.03916 1.789267 -0.530406 2 0 2 
z
" id="mfb9c6e0d0b" style="stroke:#000000;"/>
    </defs>
    <g clip-path="url(#pe5949c6f55)">
     <use style="fill:#00a98d;stroke:#000000;" x="76.439991" xlink:href="#mfb9c6e0d0b" y="278.31901"/>
     <use style="fill:#00a98d;stroke:#000000;" x="171.744379" xlink:href="#mfb9c6e0d0b" y="276.168134"/>
     <use style="fill:#00a98d;stroke:#000000;" x="267.048767" xlink:href="#mfb9c6e0d0b" y="269.715507"/>
     <use style="fill:#00a98d;stroke:#000000;" x="362.353155" xlink:href="#mfb9c6e0d0b" y="258.961129"/>
     <use style="fill:#00a98d;stroke:#000000;" x="457.657543" xlink:href="#mfb9c6e0d0b" y="243.905"/>
     <use style="fill:#00a98d;stroke:#000000;" x="552.961931" xlink:href="#mfb9c6e0d0b" y="224.54712"/>
     <use style="fill:#00a98d;stroke:#000000;" x="648.266319" xlink:href="#mfb9c6e0d0b" y="200.887488"/>
     <use style="fill:#00a98d;stroke:#000000;" x="743.570706" xlink:href="#mfb9c6e0d0b" y="172.926105"/>
     <use style="fill:#00a98d;stroke:#000000;" x="838.875094" xlink:href="#mfb9c6e0d0b" y="140.662971"/>
     <use style="fill:#00a98d;stroke:#000000;" x="934.179482" xlink:href="#mfb9c6e0d0b" y="104.098086"/>
    </g>
   </g>
   <g id="line2d_32">
    <path clip-path="url(#pe5949c6f55)" d="M 76.439991 278.31901 
L 171.744379 276.168134 
L 267.048767 269.715507 
L 362.353155 258.961129 
L 457.657543 243.905 
L 552.961931 224.54712 
L 648.266319 200.887488 
L 743.570706 172.926105 
L 838.875094 140.662971 
L 934.179482 104.098086 
" style="fill:none;stroke:#8e971e;stroke-dasharray:3.7,1.6;stroke-dashoffset:0;"/>
   </g>
   <g id="legend_1">
    <g id="patch_5">
     <path d="M 80.439991 158.234717 
L 156.923741 158.234717 
L 156.923741 38.409717 
L 80.439991 38.409717 
z
" style="fill:#ffffff;stroke:#000000;stroke-linejoin:miter;"/>
    </g>
    <g id="line2d_33">
     <path d="M 83.639991 44.888467 
L 99.639991 44.888467 
" style="fill:none;stroke:#009afa;stroke-linecap:square;"/>
    </g>
    <g id="line2d_34">
     <defs>
      <path d="M 0 3.2 
C 0.84865 3.2 1.662656 2.862828 2.262742 2.262742 
C 2.862828 1.662656 3.2 0.84865 3.2 0 
C 3.2 -0.84865 2.862828 -1.662656 2.262742 -2.262742 
C 1.662656 -2.862828 0.84865 -3.2 0 -3.2 
C -0.84865 -3.2 -1.662656 -2.862828 -2.262742 -2.262742 
C -2.862828 -1.662656 -3.2 -0.84865 -3.2 0 
C -3.2 0.84865 -2.862828 1.662656 -2.262742 2.262742 
C -1.662656 2.862828 -0.84865 3.2 0 3.2 
z
" id="m1fabbb90cd" style="stroke:#000000;stroke-width:1.6;"/>
     </defs>
     <g>
      <use style="fill:#009afa;stroke:#000000;stroke-width:1.6;" x="91.639991" xlink:href="#m1fabbb90cd" y="44.888467"/>
     </g>
    </g>
    <g id="text_15">
     <!-- FEM ML= -3 -->
     <g transform="translate(106.039991 47.688467)scale(0.08 -0.08)">
      <defs>
       <path d="M 9.8125 72.90625 
L 51.703125 72.90625 
L 51.703125 64.59375 
L 19.671875 64.59375 
L 19.671875 43.109375 
L 48.578125 43.109375 
L 48.578125 34.8125 
L 19.671875 34.8125 
L 19.671875 0 
L 9.8125 0 
z
" id="DejaVuSans-70"/>
       <path d="M 9.8125 72.90625 
L 55.90625 72.90625 
L 55.90625 64.59375 
L 19.671875 64.59375 
L 19.671875 43.015625 
L 54.390625 43.015625 
L 54.390625 34.71875 
L 19.671875 34.71875 
L 19.671875 8.296875 
L 56.78125 8.296875 
L 56.78125 0 
L 9.8125 0 
z
" id="DejaVuSans-69"/>
       <path d="M 9.8125 72.90625 
L 24.515625 72.90625 
L 43.109375 23.296875 
L 61.8125 72.90625 
L 76.515625 72.90625 
L 76.515625 0 
L 66.890625 0 
L 66.890625 64.015625 
L 48.09375 14.015625 
L 38.1875 14.015625 
L 19.390625 64.015625 
L 19.390625 0 
L 9.8125 0 
z
" id="DejaVuSans-77"/>
       <path d="M 9.8125 72.90625 
L 19.671875 72.90625 
L 19.671875 8.296875 
L 55.171875 8.296875 
L 55.171875 0 
L 9.8125 0 
z
" id="DejaVuSans-76"/>
       <path d="M 10.59375 45.40625 
L 73.1875 45.40625 
L 73.1875 37.203125 
L 10.59375 37.203125 
z
M 10.59375 25.484375 
L 73.1875 25.484375 
L 73.1875 17.1875 
L 10.59375 17.1875 
z
" id="DejaVuSans-61"/>
       <path d="M 4.890625 31.390625 
L 31.203125 31.390625 
L 31.203125 23.390625 
L 4.890625 23.390625 
z
" id="DejaVuSans-45"/>
      </defs>
      <use xlink:href="#DejaVuSans-70"/>
      <use x="57.519531" xlink:href="#DejaVuSans-69"/>
      <use x="120.703125" xlink:href="#DejaVuSans-77"/>
      <use x="206.982422" xlink:href="#DejaVuSans-32"/>
      <use x="238.769531" xlink:href="#DejaVuSans-77"/>
      <use x="325.048828" xlink:href="#DejaVuSans-76"/>
      <use x="380.761719" xlink:href="#DejaVuSans-61"/>
      <use x="464.550781" xlink:href="#DejaVuSans-32"/>
      <use x="496.337891" xlink:href="#DejaVuSans-45"/>
      <use x="532.421875" xlink:href="#DejaVuSans-51"/>
     </g>
    </g>
    <g id="line2d_35">
     <path d="M 83.639991 56.630967 
L 99.639991 56.630967 
" style="fill:none;stroke:#e36f47;stroke-dasharray:3.7,1.6;stroke-dashoffset:0;"/>
    </g>
    <g id="line2d_36"/>
    <g id="text_16">
     <!-- Analytical -->
     <g transform="translate(106.039991 59.430967)scale(0.08 -0.08)">
      <defs>
       <path d="M 34.1875 63.1875 
L 20.796875 26.90625 
L 47.609375 26.90625 
z
M 28.609375 72.90625 
L 39.796875 72.90625 
L 67.578125 0 
L 57.328125 0 
L 50.6875 18.703125 
L 17.828125 18.703125 
L 11.1875 0 
L 0.78125 0 
z
" id="DejaVuSans-65"/>
       <path d="M 32.171875 -5.078125 
Q 28.375 -14.84375 24.75 -17.8125 
Q 21.140625 -20.796875 15.09375 -20.796875 
L 7.90625 -20.796875 
L 7.90625 -13.28125 
L 13.1875 -13.28125 
Q 16.890625 -13.28125 18.9375 -11.515625 
Q 21 -9.765625 23.484375 -3.21875 
L 25.09375 0.875 
L 2.984375 54.6875 
L 12.5 54.6875 
L 29.59375 11.921875 
L 46.6875 54.6875 
L 56.203125 54.6875 
z
" id="DejaVuSans-121"/>
      </defs>
      <use xlink:href="#DejaVuSans-65"/>
      <use x="68.408203" xlink:href="#DejaVuSans-110"/>
      <use x="131.787109" xlink:href="#DejaVuSans-97"/>
      <use x="193.066406" xlink:href="#DejaVuSans-108"/>
      <use x="220.849609" xlink:href="#DejaVuSans-121"/>
      <use x="280.029297" xlink:href="#DejaVuSans-116"/>
      <use x="319.238281" xlink:href="#DejaVuSans-105"/>
      <use x="347.021484" xlink:href="#DejaVuSans-99"/>
      <use x="402.001953" xlink:href="#DejaVuSans-97"/>
      <use x="463.28125" xlink:href="#DejaVuSans-108"/>
     </g>
    </g>
    <g id="line2d_37">
     <path d="M 83.639991 68.373467 
L 99.639991 68.373467 
" style="fill:none;stroke:#3ea44e;stroke-linecap:square;"/>
    </g>
    <g id="line2d_38">
     <defs>
      <path d="M 0 3.2 
C 0.84865 3.2 1.662656 2.862828 2.262742 2.262742 
C 2.862828 1.662656 3.2 0.84865 3.2 0 
C 3.2 -0.84865 2.862828 -1.662656 2.262742 -2.262742 
C 1.662656 -2.862828 0.84865 -3.2 0 -3.2 
C -0.84865 -3.2 -1.662656 -2.862828 -2.262742 -2.262742 
C -2.862828 -1.662656 -3.2 -0.84865 -3.2 0 
C -3.2 0.84865 -2.862828 1.662656 -2.262742 2.262742 
C -1.662656 2.862828 -0.84865 3.2 0 3.2 
z
" id="m4609c70ab8" style="stroke:#000000;stroke-width:1.6;"/>
     </defs>
     <g>
      <use style="fill:#3ea44e;stroke:#000000;stroke-width:1.6;" x="91.639991" xlink:href="#m4609c70ab8" y="68.373467"/>
     </g>
    </g>
    <g id="text_17">
     <!-- FEM ML= -1 -->
     <g transform="translate(106.039991 71.173467)scale(0.08 -0.08)">
      <use xlink:href="#DejaVuSans-70"/>
      <use x="57.519531" xlink:href="#DejaVuSans-69"/>
      <use x="120.703125" xlink:href="#DejaVuSans-77"/>
      <use x="206.982422" xlink:href="#DejaVuSans-32"/>
      <use x="238.769531" xlink:href="#DejaVuSans-77"/>
      <use x="325.048828" xlink:href="#DejaVuSans-76"/>
      <use x="380.761719" xlink:href="#DejaVuSans-61"/>
      <use x="464.550781" xlink:href="#DejaVuSans-32"/>
      <use x="496.337891" xlink:href="#DejaVuSans-45"/>
      <use x="532.421875" xlink:href="#DejaVuSans-49"/>
     </g>
    </g>
    <g id="line2d_39">
     <path d="M 83.639991 80.115967 
L 99.639991 80.115967 
" style="fill:none;stroke:#c371d2;stroke-dasharray:3.7,1.6;stroke-dashoffset:0;"/>
    </g>
    <g id="line2d_40"/>
    <g id="text_18">
     <!-- Analytical -->
     <g transform="translate(106.039991 82.915967)scale(0.08 -0.08)">
      <use xlink:href="#DejaVuSans-65"/>
      <use x="68.408203" xlink:href="#DejaVuSans-110"/>
      <use x="131.787109" xlink:href="#DejaVuSans-97"/>
      <use x="193.066406" xlink:href="#DejaVuSans-108"/>
      <use x="220.849609" xlink:href="#DejaVuSans-121"/>
      <use x="280.029297" xlink:href="#DejaVuSans-116"/>
      <use x="319.238281" xlink:href="#DejaVuSans-105"/>
      <use x="347.021484" xlink:href="#DejaVuSans-99"/>
      <use x="402.001953" xlink:href="#DejaVuSans-97"/>
      <use x="463.28125" xlink:href="#DejaVuSans-108"/>
     </g>
    </g>
    <g id="line2d_41">
     <path d="M 83.639991 91.858467 
L 99.639991 91.858467 
" style="fill:none;stroke:#ac8e18;stroke-linecap:square;"/>
    </g>
    <g id="line2d_42">
     <defs>
      <path d="M 0 3.2 
C 0.84865 3.2 1.662656 2.862828 2.262742 2.262742 
C 2.862828 1.662656 3.2 0.84865 3.2 0 
C 3.2 -0.84865 2.862828 -1.662656 2.262742 -2.262742 
C 1.662656 -2.862828 0.84865 -3.2 0 -3.2 
C -0.84865 -3.2 -1.662656 -2.862828 -2.262742 -2.262742 
C -2.862828 -1.662656 -3.2 -0.84865 -3.2 0 
C -3.2 0.84865 -2.862828 1.662656 -2.262742 2.262742 
C -1.662656 2.862828 -0.84865 3.2 0 3.2 
z
" id="mc3ac54183f" style="stroke:#000000;stroke-width:1.6;"/>
     </defs>
     <g>
      <use style="fill:#ac8e18;stroke:#000000;stroke-width:1.6;" x="91.639991" xlink:href="#mc3ac54183f" y="91.858467"/>
     </g>
    </g>
    <g id="text_19">
     <!-- FEM ML= 2 -->
     <g transform="translate(106.039991 94.658467)scale(0.08 -0.08)">
      <use xlink:href="#DejaVuSans-70"/>
      <use x="57.519531" xlink:href="#DejaVuSans-69"/>
      <use x="120.703125" xlink:href="#DejaVuSans-77"/>
      <use x="206.982422" xlink:href="#DejaVuSans-32"/>
      <use x="238.769531" xlink:href="#DejaVuSans-77"/>
      <use x="325.048828" xlink:href="#DejaVuSans-76"/>
      <use x="380.761719" xlink:href="#DejaVuSans-61"/>
      <use x="464.550781" xlink:href="#DejaVuSans-32"/>
      <use x="496.337891" xlink:href="#DejaVuSans-50"/>
     </g>
    </g>
    <g id="line2d_43">
     <path d="M 83.639991 103.600967 
L 99.639991 103.600967 
" style="fill:none;stroke:#00aaae;stroke-dasharray:3.7,1.6;stroke-dashoffset:0;"/>
    </g>
    <g id="line2d_44"/>
    <g id="text_20">
     <!-- Analytical -->
     <g transform="translate(106.039991 106.400967)scale(0.08 -0.08)">
      <use xlink:href="#DejaVuSans-65"/>
      <use x="68.408203" xlink:href="#DejaVuSans-110"/>
      <use x="131.787109" xlink:href="#DejaVuSans-97"/>
      <use x="193.066406" xlink:href="#DejaVuSans-108"/>
      <use x="220.849609" xlink:href="#DejaVuSans-121"/>
      <use x="280.029297" xlink:href="#DejaVuSans-116"/>
      <use x="319.238281" xlink:href="#DejaVuSans-105"/>
      <use x="347.021484" xlink:href="#DejaVuSans-99"/>
      <use x="402.001953" xlink:href="#DejaVuSans-97"/>
      <use x="463.28125" xlink:href="#DejaVuSans-108"/>
     </g>
    </g>
    <g id="line2d_45">
     <path d="M 83.639991 115.343467 
L 99.639991 115.343467 
" style="fill:none;stroke:#ed5e93;stroke-linecap:square;"/>
    </g>
    <g id="line2d_46">
     <defs>
      <path d="M 0 3.2 
C 0.84865 3.2 1.662656 2.862828 2.262742 2.262742 
C 2.862828 1.662656 3.2 0.84865 3.2 0 
C 3.2 -0.84865 2.862828 -1.662656 2.262742 -2.262742 
C 1.662656 -2.862828 0.84865 -3.2 0 -3.2 
C -0.84865 -3.2 -1.662656 -2.862828 -2.262742 -2.262742 
C -2.862828 -1.662656 -3.2 -0.84865 -3.2 0 
C -3.2 0.84865 -2.862828 1.662656 -2.262742 2.262742 
C -1.662656 2.862828 -0.84865 3.2 0 3.2 
z
" id="m1833216266" style="stroke:#000000;stroke-width:1.6;"/>
     </defs>
     <g>
      <use style="fill:#ed5e93;stroke:#000000;stroke-width:1.6;" x="91.639991" xlink:href="#m1833216266" y="115.343467"/>
     </g>
    </g>
    <g id="text_21">
     <!-- FEM ML= 4 -->
     <g transform="translate(106.039991 118.143467)scale(0.08 -0.08)">
      <defs>
       <path d="M 37.796875 64.3125 
L 12.890625 25.390625 
L 37.796875 25.390625 
z
M 35.203125 72.90625 
L 47.609375 72.90625 
L 47.609375 25.390625 
L 58.015625 25.390625 
L 58.015625 17.1875 
L 47.609375 17.1875 
L 47.609375 0 
L 37.796875 0 
L 37.796875 17.1875 
L 4.890625 17.1875 
L 4.890625 26.703125 
z
" id="DejaVuSans-52"/>
      </defs>
      <use xlink:href="#DejaVuSans-70"/>
      <use x="57.519531" xlink:href="#DejaVuSans-69"/>
      <use x="120.703125" xlink:href="#DejaVuSans-77"/>
      <use x="206.982422" xlink:href="#DejaVuSans-32"/>
      <use x="238.769531" xlink:href="#DejaVuSans-77"/>
      <use x="325.048828" xlink:href="#DejaVuSans-76"/>
      <use x="380.761719" xlink:href="#DejaVuSans-61"/>
      <use x="464.550781" xlink:href="#DejaVuSans-32"/>
      <use x="496.337891" xlink:href="#DejaVuSans-52"/>
     </g>
    </g>
    <g id="line2d_47">
     <path d="M 83.639991 127.085967 
L 99.639991 127.085967 
" style="fill:none;stroke:#c68225;stroke-dasharray:3.7,1.6;stroke-dashoffset:0;"/>
    </g>
    <g id="line2d_48"/>
    <g id="text_22">
     <!-- Analytical -->
     <g transform="translate(106.039991 129.885967)scale(0.08 -0.08)">
      <use xlink:href="#DejaVuSans-65"/>
      <use x="68.408203" xlink:href="#DejaVuSans-110"/>
      <use x="131.787109" xlink:href="#DejaVuSans-97"/>
      <use x="193.066406" xlink:href="#DejaVuSans-108"/>
      <use x="220.849609" xlink:href="#DejaVuSans-121"/>
      <use x="280.029297" xlink:href="#DejaVuSans-116"/>
      <use x="319.238281" xlink:href="#DejaVuSans-105"/>
      <use x="347.021484" xlink:href="#DejaVuSans-99"/>
      <use x="402.001953" xlink:href="#DejaVuSans-97"/>
      <use x="463.28125" xlink:href="#DejaVuSans-108"/>
     </g>
    </g>
    <g id="line2d_49">
     <path d="M 83.639991 138.828467 
L 99.639991 138.828467 
" style="fill:none;stroke:#00a98d;stroke-linecap:square;"/>
    </g>
    <g id="line2d_50">
     <defs>
      <path d="M 0 3.2 
C 0.84865 3.2 1.662656 2.862828 2.262742 2.262742 
C 2.862828 1.662656 3.2 0.84865 3.2 0 
C 3.2 -0.84865 2.862828 -1.662656 2.262742 -2.262742 
C 1.662656 -2.862828 0.84865 -3.2 0 -3.2 
C -0.84865 -3.2 -1.662656 -2.862828 -2.262742 -2.262742 
C -2.862828 -1.662656 -3.2 -0.84865 -3.2 0 
C -3.2 0.84865 -2.862828 1.662656 -2.262742 2.262742 
C -1.662656 2.862828 -0.84865 3.2 0 3.2 
z
" id="m2772e5362b" style="stroke:#000000;stroke-width:1.6;"/>
     </defs>
     <g>
      <use style="fill:#00a98d;stroke:#000000;stroke-width:1.6;" x="91.639991" xlink:href="#m2772e5362b" y="138.828467"/>
     </g>
    </g>
    <g id="text_23">
     <!-- FEM ML= 5 -->
     <g transform="translate(106.039991 141.628467)scale(0.08 -0.08)">
      <use xlink:href="#DejaVuSans-70"/>
      <use x="57.519531" xlink:href="#DejaVuSans-69"/>
      <use x="120.703125" xlink:href="#DejaVuSans-77"/>
      <use x="206.982422" xlink:href="#DejaVuSans-32"/>
      <use x="238.769531" xlink:href="#DejaVuSans-77"/>
      <use x="325.048828" xlink:href="#DejaVuSans-76"/>
      <use x="380.761719" xlink:href="#DejaVuSans-61"/>
      <use x="464.550781" xlink:href="#DejaVuSans-32"/>
      <use x="496.337891" xlink:href="#DejaVuSans-53"/>
     </g>
    </g>
    <g id="line2d_51">
     <path d="M 83.639991 150.570967 
L 99.639991 150.570967 
" style="fill:none;stroke:#8e971e;stroke-dasharray:3.7,1.6;stroke-dashoffset:0;"/>
    </g>
    <g id="line2d_52"/>
    <g id="text_24">
     <!-- Analytical -->
     <g transform="translate(106.039991 153.370967)scale(0.08 -0.08)">
      <use xlink:href="#DejaVuSans-65"/>
      <use x="68.408203" xlink:href="#DejaVuSans-110"/>
      <use x="131.787109" xlink:href="#DejaVuSans-97"/>
      <use x="193.066406" xlink:href="#DejaVuSans-108"/>
      <use x="220.849609" xlink:href="#DejaVuSans-121"/>
      <use x="280.029297" xlink:href="#DejaVuSans-116"/>
      <use x="319.238281" xlink:href="#DejaVuSans-105"/>
      <use x="347.021484" xlink:href="#DejaVuSans-99"/>
      <use x="402.001953" xlink:href="#DejaVuSans-97"/>
      <use x="463.28125" xlink:href="#DejaVuSans-108"/>
     </g>
    </g>
   </g>
  </g>
 </g>
 <defs>
  <clipPath id="pe5949c6f55">
   <rect height="418.130217" width="900.626465" x="76.439991" y="34.409717"/>
  </clipPath>
 </defs>
</svg>
